<svg width="200" height="200" viewBox="0 0 200 200" fill="none" xmlns="http://www.w3.org/2000/svg">
<rect width="200" height="200" fill="#211D1F"/>
<path d="M101 112L95 146" stroke="#868089" stroke-width="0.75" stroke-miterlimit="10"/>
<circle cx="39.5" cy="53.5" r="17.5" fill="url(#paint0_linear_19_5)"/>
<path d="M55 62L85 83" stroke="#868089" stroke-width="0.75" stroke-miterlimit="10"/>
<path d="M84.9957 83.0184L85.3173 81.2704L87.9405 85.2034L83.2902 84.3309L84.7799 83.3448L84.9572 83.2275L84.9957 83.0184Z" fill="#868089" stroke="#868089"/>
<circle cx="103.5" cy="95.5" r="17.5" fill="url(#paint1_linear_19_5)"/>
<path d="M95.0888 144.346L96.8268 143.974L94.197 147.903L93.2236 143.273L94.7046 144.272L94.8809 144.39L95.0888 144.346Z" fill="#868089" stroke="#868089"/>
<circle cx="91.5" cy="166.5" r="17.5" fill="url(#paint2_linear_19_5)"/>
<path d="M141 46L115 80" stroke="#868089" stroke-width="0.75" stroke-miterlimit="10"/>
<path d="M117.561 76.5444L119.896 77.1205L114.481 80.0837L116.057 74.2926L117.249 76.3147L117.354 76.4933L117.561 76.5444Z" fill="#868089" stroke="#868089"/>
<circle cx="149.5" cy="33.5" r="17.5" fill="url(#paint3_linear_19_5)"/>
<path d="M147.91 124.761H142.038L139.957 122.754C147.493 114.013 151.635 102.854 151.627 91.3133C151.627 81.7579 148.793 72.417 143.484 64.4719C138.176 56.5268 130.63 50.3344 121.802 46.6777C112.974 43.0209 103.26 42.0642 93.8879 43.9283C84.516 45.7925 75.9074 50.3939 69.1507 57.1507C62.3939 63.9074 57.7925 72.516 55.9283 81.8879C54.0642 91.2597 55.0209 100.974 58.6777 109.802C62.3344 118.63 68.5268 126.176 76.4719 131.484C84.417 136.793 93.7579 139.627 103.313 139.627C115.28 139.627 126.281 135.241 134.754 127.957L136.761 130.038V135.91L173.925 173L185 161.925L147.91 124.761V124.761ZM103.313 124.761C84.8056 124.761 69.8657 109.821 69.8657 91.3133C69.8657 72.8056 84.8056 57.8657 103.313 57.8657C121.821 57.8657 136.761 72.8056 136.761 91.3133C136.761 109.821 121.821 124.761 103.313 124.761Z" fill="#E5E5E5"/>
<defs>
<linearGradient id="paint0_linear_19_5" x1="22" y1="36" x2="63.1765" y2="46.2941" gradientUnits="userSpaceOnUse">
<stop stop-color="#FFC500"/>
<stop offset="0.411458" stop-color="#DC2223"/>
<stop offset="1" stop-color="#720096"/>
</linearGradient>
<linearGradient id="paint1_linear_19_5" x1="86" y1="78" x2="127.176" y2="88.2941" gradientUnits="userSpaceOnUse">
<stop offset="0.166667" stop-color="#DC2223"/>
<stop offset="1" stop-color="#720096"/>
</linearGradient>
<linearGradient id="paint2_linear_19_5" x1="74" y1="149" x2="115.176" y2="159.294" gradientUnits="userSpaceOnUse">
<stop stop-color="#FFC500"/>
<stop offset="0.373608" stop-color="#FB6E00"/>
<stop offset="0.921588" stop-color="#DC2223"/>
</linearGradient>
<linearGradient id="paint3_linear_19_5" x1="132" y1="16" x2="173.176" y2="26.2941" gradientUnits="userSpaceOnUse">
<stop stop-color="#FFC500"/>
<stop offset="0.373608" stop-color="#FB6E00"/>
<stop offset="0.921588" stop-color="#DC2223"/>
</linearGradient>
</defs>
</svg>
