<svg width="200" height="200" viewBox="0 0 200 200" fill="none" xmlns="http://www.w3.org/2000/svg">
<rect width="200" height="200" fill="#211D1F"/>
<path d="M101 112L95 147" stroke="#868089" stroke-width="0.75" stroke-miterlimit="10"/>
<circle cx="39.5" cy="53.5" r="17.5" fill="url(#paint0_linear_19_5)"/>
<path d="M55 62L85 83" stroke="#868089" stroke-width="0.75" stroke-miterlimit="10"/>
<path d="M84.9957 83.0184L85.3173 81.2704L87.9405 85.2034L83.2902 84.3309L84.7799 83.3448L84.9572 83.2275L84.9957 83.0184Z" fill="#868089" stroke="#868089"/>
<circle cx="103.5" cy="95.5" r="17.5" fill="url(#paint1_linear_19_5)"/>
<path d="M94.8658 147.178L96.6037 146.806L93.9739 150.735L93.0005 146.104L94.4816 147.103L94.6579 147.222L94.8658 147.178Z" fill="#868089" stroke="#868089"/>
<circle cx="91.5" cy="169.5" r="17.5" fill="url(#paint2_linear_19_5)"/>
<path d="M141 46L115 80" stroke="#868089" stroke-width="0.75" stroke-miterlimit="10"/>
<path d="M117.561 76.5444L119.896 77.1205L114.481 80.0837L116.057 74.2926L117.249 76.3147L117.354 76.4933L117.561 76.5444Z" fill="#868089" stroke="#868089"/>
<circle cx="149.5" cy="33.5" r="17.5" fill="url(#paint3_linear_19_5)"/>
<path d="M147.91 127.761H142.038L139.957 125.754C147.493 117.013 151.635 105.854 151.627 94.3133C151.627 84.7579 148.793 75.417 143.484 67.4719C138.176 59.5268 130.63 53.3344 121.802 49.6777C112.974 46.0209 103.26 45.0642 93.8879 46.9283C84.516 48.7925 75.9074 53.3939 69.1507 60.1507C62.3939 66.9074 57.7925 75.516 55.9283 84.8879C54.0642 94.2597 55.0209 103.974 58.6777 112.802C62.3344 121.63 68.5268 129.176 76.4719 134.484C84.417 139.793 93.7579 142.627 103.313 142.627C115.28 142.627 126.281 138.241 134.754 130.957L136.761 133.038V138.91L173.925 176L185 164.925L147.91 127.761V127.761ZM103.313 127.761C84.8056 127.761 69.8657 112.821 69.8657 94.3133C69.8657 75.8056 84.8056 60.8657 103.313 60.8657C121.821 60.8657 136.761 75.8056 136.761 94.3133C136.761 112.821 121.821 127.761 103.313 127.761Z" fill="#E5E5E5"/>
<defs>
<linearGradient id="paint0_linear_19_5" x1="22" y1="36" x2="63.1765" y2="46.2941" gradientUnits="userSpaceOnUse">
<stop stop-color="#FFC500"/>
<stop offset="0.411458" stop-color="#DC2223"/>
<stop offset="1" stop-color="#720096"/>
</linearGradient>
<linearGradient id="paint1_linear_19_5" x1="86" y1="78" x2="127.176" y2="88.2941" gradientUnits="userSpaceOnUse">
<stop offset="0.166667" stop-color="#DC2223"/>
<stop offset="1" stop-color="#720096"/>
</linearGradient>
<linearGradient id="paint2_linear_19_5" x1="74" y1="152" x2="115.176" y2="162.294" gradientUnits="userSpaceOnUse">
<stop stop-color="#FFC500"/>
<stop offset="0.373608" stop-color="#FB6E00"/>
<stop offset="0.921588" stop-color="#DC2223"/>
</linearGradient>
<linearGradient id="paint3_linear_19_5" x1="132" y1="16" x2="173.176" y2="26.2941" gradientUnits="userSpaceOnUse">
<stop stop-color="#FFC500"/>
<stop offset="0.373608" stop-color="#FB6E00"/>
<stop offset="0.921588" stop-color="#DC2223"/>
</linearGradient>
</defs>
</svg>
